<?xml version="1.0" encoding="UTF-8"?>
<svg width="40px" height="40px" viewBox="0 0 40 40" version="1.1" xmlns="http://www.w3.org/2000/svg" xmlns:xlink="http://www.w3.org/1999/xlink">
    <!-- Generator: Sketch 52.4 (67378) - http://www.bohemiancoding.com/sketch -->
    <title>添加 加号 无边框</title>
    <desc>Created with Sketch.</desc>
    <g id="Page-1" stroke="none" stroke-width="1" fill="none" fill-rule="evenodd">
        <g id="新增手工标签-copy-10" transform="translate(-419.000000, -522.000000)">
            <g id="Dialog-对话框/表单" transform="translate(395.000000, 435.000000)">
                <g id="添加-加号-无边框" transform="translate(24.000000, 87.000000)">
                    <rect id="矩形" fill="#E9F4FF" x="0" y="0" width="40" height="40" rx="4"></rect>
                    <path d="M26.5,20 L21,20 L21,14.5 C21,14.22 20.78,14 20.5,14 C20.22,14 20,14.22 20,14.5 L20,20 L14.5,20 C14.22,20 14,20.22 14,20.5 C14,20.78 14.22,21 14.5,21 L20,21 L20,26.5 C20,26.78 20.22,27 20.5,27 C20.78,27 21,26.78 21,26.5 L21,21 L26.5,21 C26.78,21 27,20.78 27,20.5 C27,20.22 26.78,20 26.5,20 Z" id="路径" fill="#1890FF"></path>
                </g>
            </g>
        </g>
    </g>
</svg>