<?xml version="1.0" encoding="utf-8"?>
<!-- Generator: Adobe Illustrator 21.0.0, SVG Export Plug-In . SVG Version: 6.00 Build 0)  -->
<svg version="1.1" id="图层_1" xmlns="http://www.w3.org/2000/svg" xmlns:xlink="http://www.w3.org/1999/xlink" x="0px" y="0px"
	 viewBox="0 0 400 335" style="enable-background:new 0 0 400 335;" xml:space="preserve">
<style type="text/css">
	.st0{fill:#FAFCFF;}
	.st1{fill:#DBE5F1;}
	.st2{fill:#DEE7F4;}
	.st3{fill:#B9C7DB;}
	.st4{fill:#FFFFFF;}
	.st5{fill:none;stroke:#B9C7DB;stroke-width:4;stroke-miterlimit:10;}
	.st6{fill:none;stroke:#B6C7D8;stroke-miterlimit:10;}
</style>
<path class="st0" d="M80.9,159.3c0,50.2,40.7,90.9,90.9,90.9s90.9-40.7,90.9-90.9l0,0c0-50.2-40.7-90.9-90.9-90.9
	C121.6,68.3,80.9,109,80.9,159.3C80.9,159.2,80.9,159.3,80.9,159.3z"/>
<path class="st1" d="M96.3,264.2c-0.9,0-2,0-2.8-0.1l0.3-2.7c1.6,0.1,3.3,0.1,5.1,0l0.1,2.7C98,264.1,97.1,264.2,96.3,264.2z
	 M104.3,263.4l-0.4-2.7c1.6-0.3,3.3-0.7,5.1-1.1l0.7,2.5C107.9,262.8,106,263.2,104.3,263.4z M87.8,263c-1.9-0.5-3.6-1.3-5.2-2.3
	l1.3-2.3c1.3,0.8,2.9,1.5,4.5,2L87.8,263L87.8,263z M114.8,260.6l-0.8-2.5c1.6-0.5,3.3-1.2,4.9-1.9l0.9,2.5
	C118.2,259.6,116.6,260.1,114.8,260.6z M78.2,257.1c-1.2-1.3-2.3-2.9-3.2-4.7l2.4-1.2c0.8,1.5,1.7,2.9,2.8,4.1L78.2,257.1z
	 M125,256.7l-1.1-2.4c1.6-0.7,3.2-1.5,4.8-2.3l1.2,2.4C128.2,255.3,126.5,255.9,125,256.7z M134.6,251.9l-1.2-2.4
	c1.5-0.8,3.1-1.7,4.7-2.5l1.3,2.3C137.7,250.2,136.1,251.1,134.6,251.9z M72.9,247.3c-0.5-1.7-0.9-3.5-1.2-5.5l2.7-0.4
	c0.3,1.7,0.7,3.5,1.1,5.1L72.9,247.3L72.9,247.3z M144,246.6l-1.3-2.3c1.5-0.9,2.9-1.9,4.5-2.8l1.5,2.3
	C146.9,244.6,145.5,245.6,144,246.6z M153,240.7l-1.5-2.3c1.5-0.9,2.9-2,4.4-3.1l1.6,2.1C155.9,238.7,154.4,239.6,153,240.7z
	 M71.3,236.4v-1.2c0-1.3,0-2.8,0.1-4.3l2.7,0.1c-0.1,1.3-0.1,2.8-0.1,4.1v1.1L71.3,236.4z M161.8,234.4l-1.6-2.1
	c1.5-1.1,2.8-2.1,4.3-3.2l1.6,2.1C164.6,232.3,163.1,233.3,161.8,234.4z M170.2,227.9l-1.6-2.1c1.3-1.1,2.8-2.3,4.1-3.3l1.7,2
	C173,225.6,171.7,226.8,170.2,227.9z M74.7,225.9l-2.7-0.4c0.3-1.7,0.5-3.5,0.9-5.3l2.7,0.5C75.3,222.5,75,224.3,74.7,225.9
	L74.7,225.9z M178.5,221l-1.7-2c1.3-1.2,2.7-2.3,4-3.5l1.7,2C181.3,218.8,179.8,219.8,178.5,221z M76.9,215.6l-2.5-0.7l1.6-5.2
	l2.5,0.8C77.9,212.2,77.4,214,76.9,215.6z M186.6,214l-1.7-2c1.3-1.2,2.7-2.4,3.9-3.6l1.9,2C189.2,211.6,188,212.8,186.6,214z
	 M194.4,206.6l-1.9-1.9c1.3-1.2,2.5-2.4,3.9-3.7l1.9,1.9C197.1,204.2,195.7,205.4,194.4,206.6z M80.2,205.5l-2.5-0.9
	c0.7-1.6,1.3-3.3,2-4.9l2.5,1.1L80.2,205.5z M202.2,199.1l-1.9-1.9c1.2-1.2,2.5-2.5,3.7-3.9l1.9,1.9
	C204.6,196.6,203.4,197.8,202.2,199.1z M84.5,195.6l-2.5-0.7c0.1-0.3,0.1-0.7,0.1-1.2c0-0.9-0.1-2-0.4-3.6l2.7-0.4
	c0.3,1.7,0.4,3.1,0.4,4C84.6,194.4,84.6,195.1,84.5,195.6z M209.5,191.4l-2-1.9c1.2-1.3,2.4-2.5,3.6-3.9l2,1.7
	C212,188.8,210.7,190,209.5,191.4z M80.8,184.9v-0.4c-0.3-1.5-0.5-3.2-0.9-4.9l2.7-0.4c0.3,1.7,0.7,3.3,0.9,4.9v0.4L80.8,184.9z
	 M215.5,184.8l-2-1.7c1.2-1.3,2.4-2.7,3.5-4l2,1.7C217.9,182.1,216.7,183.5,215.5,184.8z M222.6,176.8l-2-1.7c1.2-1.3,2.3-2.7,3.5-4
	l2,1.7C225,174,223.8,175.5,222.6,176.8z M78.9,174.4c-0.3-1.9-0.5-3.6-0.7-5.3l2.7-0.3c0.1,1.7,0.4,3.5,0.7,5.2L78.9,174.4z
	 M229.6,168.5l-2.1-1.7c1.1-1.3,2.3-2.8,3.3-4.1l2.1,1.6C231.8,165.7,230.6,167.2,229.6,168.5z M77.7,163.6
	c-0.1-1.9-0.1-3.6-0.1-5.5h2.7c0,1.7,0,3.5,0.1,5.2L77.7,163.6z M236.3,160.1l-2.1-1.6c1.1-1.5,2.1-2.8,3.2-4.3l2.1,1.6
	C238.4,157.3,237.3,158.6,236.3,160.1z M80.4,152.9l-2.7-0.1c0.1-1.9,0.3-3.6,0.5-5.5l2.7,0.3C80.6,149.4,80.5,151.1,80.4,152.9z
	 M242.5,151.5l-2.1-1.6c1.1-1.5,2.1-2.9,3.1-4.3l2.1,1.5C244.7,148.6,243.6,150,242.5,151.5z M248.8,142.7l-2.3-1.5
	c1.1-1.5,2-2.9,2.9-4.4l2.3,1.5C250.8,139.8,249.8,141.2,248.8,142.7z M81.7,142.4l-2.7-0.5c0.4-1.7,0.8-3.6,1.2-5.3l2.5,0.7
	C82.4,139.1,82,140.7,81.7,142.4z M254.7,133.7l-2.3-1.5c0.9-1.5,1.9-3.1,2.8-4.5l2.3,1.3C256.6,130.7,255.6,132.1,254.7,133.7z
	 M84.5,132.4l-2.5-0.9c0.7-1.7,1.3-3.3,2.1-5.1l2.4,1.1C85.7,129.2,85,130.8,84.5,132.4z M260.2,124.5l-2.3-1.3
	c0.9-1.6,1.7-3.1,2.7-4.7l2.3,1.3C262.1,121.4,261.1,122.9,260.2,124.5z M88.9,122.9l-2.3-1.3l0.9-1.6c0.5-0.9,1.1-2,1.7-2.9
	l2.3,1.3c-0.5,1.1-1.2,2-1.7,2.9L88.9,122.9z M265.4,115.2L263,114c0.8-1.6,1.6-3.2,2.4-4.7l2.4,1.2
	C267.1,111.9,266.3,113.5,265.4,115.2z M94.3,113.7l-2.3-1.3c0.9-1.5,1.9-3.1,2.8-4.5l2.3,1.5L94.3,113.7z M270.2,105.5l-2.4-1.1
	c0.8-1.6,1.5-3.2,2.1-4.8l2.4,1.1C271.8,102.2,271,103.8,270.2,105.5z M100,104.9l-2.1-1.6l3.2-4.4l2.1,1.6
	C102.1,101.9,101.1,103.3,100,104.9z M106.6,96.4l-2-1.7l3.6-4l1.9,1.9C108.8,93.8,107.6,95.1,106.6,96.4z M274.5,95.6l-2.5-0.9
	c0.7-1.6,1.3-3.3,1.9-4.9l2.5,0.9C275.8,92.2,275.2,93.9,274.5,95.6z M113.9,88.9l-1.7-2c1.3-1.2,2.8-2.4,4.1-3.5l1.6,2.1
	C116.6,86.7,115.1,87.7,113.9,88.9z M278.1,85.5l-2.5-0.8c0.5-1.7,1.1-3.5,1.5-5.1l2.5,0.7C279.2,81.9,278.8,83.6,278.1,85.5z
	 M122.1,82.4l-1.5-2.3c1.5-1.1,3.1-2,4.5-2.9l1.3,2.3C125,80.5,123.5,81.5,122.1,82.4z M131.2,77.2l-1.2-2.4
	c1.6-0.8,3.3-1.5,4.9-2.3L136,75C134.4,75.7,132.8,76.4,131.2,77.2z M280.9,74.9l-2.7-0.5c0.4-1.7,0.7-3.5,0.8-5.2l2.7,0.4
	C281.6,71.3,281.3,73.2,280.9,74.9z M140.9,73.2l-0.8-2.5l5.2-1.6l0.7,2.5C144.3,72.1,142.7,72.6,140.9,73.2z M151.1,70.4l-0.5-2.7
	c1.7-0.4,3.6-0.8,5.3-1.1l0.4,2.7C154.6,69.7,152.8,70,151.1,70.4z M187.8,69.2c-1.5-0.1-3.2-0.4-5.2-0.5l0.3-2.7
	c2.1,0.1,3.9,0.4,5.3,0.7L187.8,69.2z M194,68.9l-1.6-2.1c1.5-1.1,2.9-2.1,4.3-3.2l1.6,2.1C196.9,66.7,195.5,67.8,194,68.9z
	 M161.5,68.6l-0.3-2.7c1.7-0.3,3.6-0.4,5.3-0.4l0.1,2.7L161.5,68.6z M177.3,68.1c-1.6-0.1-3.2-0.1-4.8-0.1H172v-2.7h0.5
	c1.6,0,3.2,0,4.9,0.1L177.3,68.1z M282.2,64.1l-2.7-0.1v-1.7c0-1.2,0-2.4-0.1-3.5l2.7-0.3c0.1,1.2,0.1,2.4,0.1,3.6V64.1z
	 M202.7,62.6l-1.5-2.3c1.5-1.1,2.9-2,4.4-2.9l1.5,2.3C205.6,60.6,204.2,61.7,202.7,62.6L202.7,62.6z M211.6,56.9l-1.5-2.3
	c1.6-0.9,3.1-1.9,4.7-2.8l1.3,2.3C214.6,55,213.1,55.9,211.6,56.9z M278.6,53.8c-0.4-1.7-1.1-3.3-1.7-4.7l2.4-1.2
	c0.8,1.6,1.5,3.3,2,5.3L278.6,53.8L278.6,53.8z M220.7,51.5l-1.3-2.4c1.6-0.9,3.2-1.7,4.8-2.5l1.2,2.4
	C223.9,49.8,222.3,50.7,220.7,51.5z M230.2,46.7l-1.1-2.4c1.7-0.8,3.3-1.5,4.9-2.1l0.9,2.5C233.6,45.4,231.8,46,230.2,46.7z
	 M274.1,45l-0.9-0.9c-0.9-0.8-1.9-1.5-2.9-2.1l1.3-2.3c1.2,0.7,2.4,1.5,3.3,2.4c0.4,0.4,0.8,0.7,1.1,1.1L274.1,45L274.1,45z
	 M240,42.8l-0.8-2.5c1.7-0.7,3.5-1.2,5.2-1.6l0.7,2.5C243.5,41.7,241.7,42.3,240,42.8z M265.5,40.1c-1.6-0.4-3.2-0.7-5.1-0.8
	l0.1-2.7c2,0.1,3.9,0.4,5.5,0.8L265.5,40.1L265.5,40.1z M250.2,40.1l-0.5-2.7c1.9-0.4,3.7-0.5,5.5-0.8l0.3,2.7
	C253.8,39.5,252,39.7,250.2,40.1L250.2,40.1z"/>
<path class="st2" d="M92.1,178.4c5.6,5.9,32.8-11.2,60.8-38.2s46.2-53.7,40.6-59.6c0,0,0,0-0.1-0.1c-5.6-5.8-32.9,11.3-60.9,38.4
	C104.6,145.9,86.5,172.6,92.1,178.4L92.1,178.4z"/>
<path class="st0" d="M122.1,117.3l5.7-5.7l25.5,25.5l-5.7,5.7L122.1,117.3z M163.8,147.2h148.4c3.7,0,6.7,2.9,6.7,6.7v61.5
	c0,3.7-2.9,6.7-6.7,6.7H163.8c-3.7,0-6.7-2.9-6.7-6.7v-61.5C157.1,150.2,160,147.2,163.8,147.2z"/>
<path class="st3" d="M325.8,134.1v-5.6h2v5.6h5.6v2h-5.6v5.7h-2v-5.6h-5.6v-2L325.8,134.1L325.8,134.1z M86.6,202.5l-1.3-2.9
	c-0.4-0.9-0.8-1.7-1.3-2.9l-0.8-3.3c-4-10.6-6.3-21.9-6.3-34c0-23.9,9-45.9,23.8-62.3L85.3,80.8c-1.6-1.7-1.6-4.5,0.1-6.2
	c1.7-1.7,4.4-1.7,6.2-0.1l16.3,15.4c16.6-15,38.5-24.1,62.7-24.1c17.8,0,34.5,4.9,48.7,13.6c10.7,7.2,13.4,8.7,21,17.6
	c5.7,6.7,6,6.4,10.7,14.2c0.8,0.1,7.5,11.8,7.5,15.6c2.4,6.3,4,13,4.9,19.7h48.4c2.7,0,5.1,1.1,7,2.9c1.9,1.9,2.9,4.4,2.9,7v57.8
	c0,2.7-1.1,5.1-2.9,7c-1.9,1.9-4.4,2.9-7,2.9h-73.4c-17.1,17.8-41.2,28.9-67.8,28.9c-10.8,0-21.7-1.9-31.8-5.5
	c-17.8-7.9-17.1-7.2-26.1-14.2s-10-9.4-22.7-25.9C88.6,205.3,87.7,204.5,86.6,202.5z M91.7,202.6c10.2,18.5,26.7,33,46.7,40.6
	c8.6-5.3,23.7-16.8,25.5-19.3c-2.7,0-5.1-1.1-7-2.9s-2.9-4.4-2.9-7v-46.8c-9.6,6.3-20.6,10.8-31.7,13.5c-13.9,3.3-26.7,3.1-30.4-0.5
	c-6.3-6.3,9.1-30.2,34.2-56.4l-23-24.2c-14,15.9-22.7,36.8-22.7,59.6c0,10.8,1.9,21.5,5.7,31.6l2,5.5
	C88.8,197.4,89.3,198.9,91.7,202.6L91.7,202.6z M110.6,92.3l24.3,22.9l0.1-0.1c27-26.2,51.5-42,57.9-35.6c3.6,3.6,3.7,16.4,0.3,30.5
	c-3.2,13-8.8,25.5-16.8,36.4h64.4c5.1-7,9.6-13.6,13.6-20.1c-13.1-33.4-45.7-57-83.7-57C147.5,69.4,126.5,78,110.6,92.3z M137.8,118
	l17,16c11-11.4,20.5-22.7,26.7-32.2c6.6-9.9,9.1-16.8,7.5-18.5c-1.6-1.6-8.6,0.9-18.5,7.5C161,97.2,149.5,106.7,137.8,118z
	 M152.3,136.7L89,77c-0.3-0.3-0.8-0.3-1.1,0s-0.3,0.8,0,1.1l59.6,63.1C149.2,139.8,150.7,138.1,152.3,136.7z M144.9,143.8L129,127
	c-10.6,11.1-19.7,21.9-25.7,31.2c-6.6,9.9-9.1,16.8-7.5,18.5c1.6,1.6,8.6-0.9,18.5-7.5C123.3,163,134.1,154.2,144.9,143.8
	L144.9,143.8z M192,90.1c-4,11.5-18.7,30.8-38.6,50.7c-20.1,20.1-39.3,34.8-50.9,38.6c5.1,0.1,11.9-0.5,19-2.3
	c16.3-3.9,32-11.9,44-23.9c12-11.9,20.2-27.7,24.2-44.1C191.3,102,192,95.2,192,90.1z M157.6,164.8v49.3c0,1.6,0.7,3.2,1.7,4.4
	c1.2,1.2,2.7,1.7,4.4,1.7h147.9c3.3,0,6.2-2.8,6.2-6.2v-57.9c0-3.3-2.8-6.2-6.2-6.2H173.3c-0.1,0.3-0.4,0.4-0.5,0.7l3.1,2.8
	c3.1,2.9,3.2,7.9,0.1,11c-2.9,3.1-7.9,3.2-11,0.1l-3.1-3.2C160.6,162.6,159.1,163.7,157.6,164.8z M170.3,153.5
	c-1.7,2-3.7,3.7-5.6,5.6l2.8,2.9c1.7,1.7,4.3,1.7,5.9,0.1c0.8-0.8,1.2-1.9,1.2-2.9s-0.5-2.1-1.3-2.9
	C173.3,156.3,170.3,153.5,170.3,153.5z M233,224h-68.7c-9.8,8-17,13.4-26.1,19.3c9.1,3.3,22.9,6,32.4,6
	C194.8,249.1,216.9,239.5,233,224z M259.6,146.3c-0.8-5.3-3.7-15-5.3-20.1c-4.3,7.1-9.1,14.4-13.9,20.1H259.6z M196.5,206.7v-9
	h-21.8v-5.1c1.9-3.5,4.1-7.4,7.1-11.8c2.8-4.4,6.8-10.3,12-17.6h8v29.5h6.2v4.8h-6.2v9h-5.3V206.7z M243.6,207.4c-5.1,0-9-2-11.8-6
	s-4.1-9.5-4.1-16.3s1.5-12.2,4.3-16.3c2.8-4,6.7-6.2,11.8-6.2s9,2,11.8,6s4.1,9.5,4.1,16.3s-1.3,12.3-4.1,16.3
	C252.6,205.4,248.7,207.4,243.6,207.4z M243.6,202.7c3.3,0,6-1.6,7.8-4.8c1.9-3.2,2.7-7.5,2.7-13c0-5.3-0.9-9.6-2.7-12.8
	c-1.9-3.2-4.4-4.8-7.8-4.8c-3.3,0-5.9,1.6-7.8,4.8c-1.9,3.2-2.8,7.5-2.8,12.8s0.9,9.8,2.7,13C237.6,201.1,240.1,202.7,243.6,202.7z
	 M301.6,206.7v-9h-21.8v-5.1c1.9-3.5,4.1-7.4,7.1-11.8c2.8-4.4,6.8-10.3,12-17.6h8v29.5h6.2v4.8h-6.3v9h-5.2V206.7z M180.1,192.8
	l16.4,0.1v-25.1h-0.1c-4.1,5.9-7.5,10.7-10,14.6C184,186.3,181.8,189.8,180.1,192.8L180.1,192.8z M285.2,192.8l16.4,0.1v-25.1h-0.1
	c-4.1,5.9-7.5,10.7-10,14.6C288.9,186.3,286.9,189.8,285.2,192.8L285.2,192.8z M51.5,100.4l4-4l1.3,1.3l-4,4l4,4l-1.3,1.3l-4-4l-4,4
	l-1.3-1.3l4-4l-4-4l1.3-1.3L51.5,100.4z M344.6,167.6V158h3.3v9.6h9.6v3.3h-9.6v9.6h-3.3v-9.6H335v-3.3H344.6z"/>
<path class="st4" d="M52.1,248.9c2.5,0,4.7-2.1,4.7-4.7s-2.1-4.7-4.7-4.7c-2.5,0-4.7,2.1-4.7,4.7S49.6,248.9,52.1,248.9z"/>
<path class="st3" d="M52.1,250.2c-3.3,0-6-2.7-6-6s2.7-6,6-6s6,2.7,6,6S55.5,250.2,52.1,250.2z M52.1,240.8c-1.9,0-3.3,1.5-3.3,3.3
	s1.5,3.3,3.3,3.3c1.9,0,3.3-1.5,3.3-3.3S54,240.8,52.1,240.8z"/>
<path class="st3" d="M276.6,70.1l5.2-6.4l2.8,7.9l6.4,5.2l-7.9,2.8l-5.2,6.4l-2.8-7.9l-6.4-5.2L276.6,70.1z"/>
<path class="st3" d="M277.4,88.7l-3.5-9.8l-8-6.6l9.8-3.5l6.6-8l3.5,9.8l8,6.6l-9.8,3.5L277.4,88.7z M271.4,73.3l4.9,4l2.1,6l4-4.9
	l6-2.1l-4.9-4l-2.1-6l-4,4.9L271.4,73.3z"/>
<path class="st3" d="M109.7,274.7h60.4c0.7,0,1.3,0.6,1.3,1.3l0,0c0,0.7-0.6,1.3-1.3,1.4h-60.4c-0.7,0-1.3-0.6-1.3-1.3
	C108.3,275.3,108.9,274.7,109.7,274.7"/>
<path class="st3" d="M202.3,274.7h34.9c0.7,0,1.3,0.6,1.3,1.3c0,0.7-0.6,1.3-1.3,1.3h-34.9c-0.7,0-1.3-0.6-1.4-1.3
	c0-0.4,0.1-0.7,0.4-1C201.6,274.9,201.9,274.7,202.3,274.7"/>
<path class="st3" d="M141.9,284.2h131.5c0.7,0,1.3,0.6,1.4,1.3c0,0.4-0.1,0.7-0.4,1c-0.3,0.3-0.6,0.4-1,0.4H141.9
	c-0.7,0-1.3-0.6-1.3-1.3l0,0C140.5,284.8,141.1,284.2,141.9,284.2"/>
<path class="st3" d="M77.5,284.2h34.9c0.7,0,1.3,0.6,1.3,1.3l0,0c0,0.7-0.6,1.3-1.3,1.4l0,0H77.5c-0.7,0-1.3-0.6-1.4-1.3
	c0-0.4,0.1-0.7,0.4-1C76.8,284.3,77.1,284.2,77.5,284.2"/>
<path class="st3" d="M180.8,274.7h8.1c0.7,0,1.3,0.6,1.3,1.3c0,0.7-0.6,1.3-1.3,1.3h-8.1c-0.7,0.1-1.4-0.5-1.4-1.3
	c-0.1-0.7,0.5-1.4,1.3-1.4C180.6,274.7,180.7,274.7,180.8,274.7"/>
<path class="st3" d="M268,266.6h8.1c0.7,0,1.3,0.6,1.3,1.3l0,0c0,0.7-0.6,1.3-1.3,1.3H268c-0.7,0-1.3-0.6-1.3-1.3
	C266.7,267.3,267.3,266.6,268,266.6"/>
<path class="st3" d="M82.8,266.6h171.8c0.4,0,0.7,0.1,0.9,0.4c0.4,0.4,0.5,1,0.3,1.5s-0.7,0.8-1.2,0.8H82.8c-0.7,0-1.3-0.6-1.3-1.3
	C81.5,267.3,82.1,266.6,82.8,266.6"/>
</svg>
