<?xml version="1.0" encoding="UTF-8"?>
<svg width="40px" height="40px" viewBox="0 0 40 40" version="1.1" xmlns="http://www.w3.org/2000/svg" xmlns:xlink="http://www.w3.org/1999/xlink">
    <!-- Generator: Sketch 52.4 (67378) - http://www.bohemiancoding.com/sketch -->
    <title>excel-01</title>
    <desc>Created with Sketch.</desc>
    <g id="Page-1" stroke="none" stroke-width="1" fill="none" fill-rule="evenodd">
        <g id="新增手工标签-copy-5" transform="translate(-419.000000, -552.000000)">
            <g id="Dialog-对话框/表单" transform="translate(395.000000, 465.000000)">
                <g id="excel-01" transform="translate(24.000000, 87.000000)">
                    <rect id="矩形" fill="#F3F6F9" x="0" y="0" width="40" height="40" rx="4"></rect>
                    <path d="M23.1612903,5 L6,8.43821741 L6,33.174126 L23.1612903,36.6129032 L23.1612903,5 Z M14.36631,21.8272249 L12.5837092,25.7160716 L10.526648,25.5716463 L13.1304031,20.8168077 L10.8011084,15.6354107 L12.8564994,15.4909854 L14.2282447,19.3775929 L14.5004782,19.3775929 L16.0091753,15.2021348 L18.2026316,15.0593889 L15.4608113,20.5296365 L18.2043018,26.1465485 L16.0108455,26.0021232 L14.36631,21.8272249 Z" id="形状" fill="#23B08D" fill-rule="nonzero"></path>
                    <polygon id="路径" fill="#E5E7E6" points="23.1612903 8.61290323 34 8.61290323 34 33.9032258 23.1612903 33.9032258"></polygon>
                    <path d="M23.1612903,14.0322581 L30.3870968,14.0322581 L30.3870968,16.3352193 L23.1612903,16.3352193 L23.1612903,14.0322581 Z M23.1612903,18.8840053 L30.3870968,18.8840053 L30.3870968,21.1869666 L23.1612903,21.1869666 L23.1612903,18.8840053 Z M23.1612903,24.3744581 L30.3870968,24.3744581 L30.3870968,26.6774194 L23.1612903,26.6774194 L23.1612903,24.3744581 Z" id="形状" fill="#FFFFFF" fill-rule="nonzero"></path>
                </g>
            </g>
        </g>
    </g>
</svg>