<?xml version="1.0" encoding="utf-8"?>
<!-- Generator: Adobe Illustrator 21.0.0, SVG Export Plug-In . SVG Version: 6.00 Build 0)  -->
<svg version="1.1" id="图层_1" xmlns="http://www.w3.org/2000/svg" xmlns:xlink="http://www.w3.org/1999/xlink" x="0px" y="0px"
	 viewBox="0 0 400 335" style="enable-background:new 0 0 400 335;" xml:space="preserve">
<style type="text/css">
	.st0{fill:#FAFCFF;}
	.st1{fill:#DBE5F1;}
	.st2{fill:#DEE7F4;}
	.st3{fill:#B9C7DB;}
	.st4{fill:#FFFFFF;}
	.st5{fill:none;stroke:#B9C7DB;stroke-width:4;stroke-miterlimit:10;}
	.st6{fill:none;stroke:#B6C7D8;stroke-miterlimit:10;}
</style>
<path class="st3" d="M37.7,141.1c-2.4,0-4.4-1.9-4.4-4.4c0-2.4,1.9-4.4,4.4-4.4c2.4,0,4.4,1.9,4.4,4.4
	C42,139.2,40.1,141.1,37.7,141.1z"/>
<path class="st3" d="M264.6,80.4c-2.1,0-3.8-1.7-3.8-3.8s1.7-3.8,3.8-3.8c2.1,0,3.8,1.7,3.8,3.8C268.4,78.7,266.7,80.4,264.6,80.4z
	 M264.6,74.4c-1.2,0-2.1,0.9-2.1,2.1s0.9,2.1,2.1,2.1s2.1-0.9,2.1-2.1C266.7,75.4,265.8,74.4,264.6,74.4z"/>
<path class="st3" d="M98.8,136.7c-2.6,0-4.7-2.1-4.7-4.7s2.1-4.7,4.7-4.7s4.7,2.1,4.7,4.7S101.4,136.7,98.8,136.7z M98.8,129.4
	c-1.5,0-2.6,1.2-2.6,2.6s1.2,2.6,2.6,2.6c1.5,0,2.6-1.2,2.6-2.6S100.2,129.4,98.8,129.4z"/>
<path class="st3" d="M144.3,113.8h8.2c0.4,0,0.7,0.1,1,0.4c0.5,0.5,0.5,1.3,0,1.9l0,0c-0.3,0.3-0.6,0.4-1,0.4h-8.2
	c-0.4,0-0.7-0.1-1-0.4c-0.5-0.5-0.5-1.3,0-1.9l0,0C143.6,113.9,143.9,113.8,144.3,113.8"/>
<path class="st3" d="M148.4,89.1v5.7c0,0.3-0.1,0.5-0.3,0.7c-0.4,0.4-0.9,0.4-1.3,0l0,0c-0.2-0.2-0.3-0.4-0.3-0.7v-5.7
	c0-0.2,0.1-0.5,0.3-0.7c0.4-0.4,0.9-0.4,1.3,0l0,0C148.3,88.6,148.4,88.8,148.4,89.1"/>
<g>
	<path class="st3" d="M193.5,123.6l5.1-5.1c0.2-0.2,0.5-0.4,0.8-0.4s0.6,0.1,0.8,0.3c0.5,0.5,0.4,1.2,0,1.7l-5.1,5.1
		c-0.3,0.3-0.7,0.4-1.1,0.3c-0.4-0.1-0.7-0.4-0.8-0.8C193.1,124.3,193.2,123.9,193.5,123.6"/>
	<path class="st3" d="M195.3,118.6l5,5c0.2,0.2,0.3,0.5,0.3,0.8c0,0.7-0.6,1.2-1.2,1.2c-0.3,0-0.6-0.1-0.8-0.3l-5-5
		c-0.2-0.2-0.3-0.5-0.3-0.8c0-0.7,0.5-1.2,1.2-1.2C194.7,118.2,195,118.4,195.3,118.6"/>
</g>
<g>
	<path class="st3" d="M355,85.8l5.1-5.1c0.2-0.2,0.5-0.4,0.8-0.4s0.6,0.1,0.8,0.3c0.5,0.5,0.4,1.2,0,1.7l-5.1,5.1
		c-0.3,0.3-0.7,0.4-1.1,0.3s-0.7-0.4-0.8-0.8S354.7,86.1,355,85.8"/>
	<path class="st3" d="M356.8,80.8l5,5c0.2,0.2,0.3,0.5,0.3,0.8c0,0.7-0.6,1.2-1.2,1.2c-0.3,0-0.6-0.1-0.8-0.3l-5-5
		c-0.2-0.2-0.3-0.5-0.3-0.8c0-0.7,0.5-1.2,1.2-1.2C356.2,80.4,356.5,80.5,356.8,80.8"/>
</g>
<path class="st1" d="M87.8,267.9h99.5c1.2,0,2.2,0.6,2.2,1.3l0,0c0,0.7-1,1.3-2.2,1.4H87.8c-1.2,0-2.2-0.6-2.2-1.3
	C85.6,268.5,86.6,267.9,87.8,267.9"/>
<path class="st1" d="M240.5,267.9H298c1.2,0,2.2,0.6,2.2,1.3c0,0.7-1,1.3-2.2,1.3h-57.5c-1.2,0-2.2-0.6-2.2-1.3c0-0.4,0.2-0.7,0.7-1
	C239.3,268,239.9,267.9,240.5,267.9"/>
<path class="st1" d="M140.9,277.3h216.8c1.2,0,2.2,0.6,2.2,1.3c0,0.4-0.2,0.7-0.7,1c-0.4,0.3-1,0.4-1.6,0.4H140.9
	c-1.2,0-2.2-0.6-2.2-1.3l0,0C138.7,277.9,139.7,277.3,140.9,277.3"/>
<path class="st1" d="M34.7,277.3h57.5c1.2,0,2.2,0.6,2.2,1.3l0,0c0,0.7-1,1.3-2.2,1.4l0,0H34.7c-1.2,0-2.2-0.6-2.2-1.3
	c0-0.4,0.2-0.7,0.7-1C33.6,277.5,34.1,277.3,34.7,277.3"/>
<path class="st1" d="M205.1,267.9h13.3c1.2,0,2.2,0.6,2.2,1.3c0,0.7-1,1.3-2.2,1.3h-13.3c-1.2,0.1-2.3-0.5-2.4-1.3s0.8-1.4,2.1-1.4
	C204.8,267.9,205,267.9,205.1,267.9"/>
<path class="st1" d="M348.8,259.8h13.3c1.2,0,2.2,0.6,2.2,1.3l0,0c0,0.7-1,1.3-2.2,1.3h-13.3c-1.2,0-2.2-0.6-2.2-1.3
	C346.6,260.4,347.6,259.8,348.8,259.8"/>
<path class="st1" d="M43.6,259.8h283.1c0.6,0,1.1,0.1,1.6,0.4c0.6,0.4,0.8,1,0.5,1.5s-1.1,0.8-2,0.8H43.6c-1.2,0-2.2-0.6-2.2-1.3
	S42.4,259.8,43.6,259.8"/>
<path class="st3" d="M180.3,240h-41.9c-0.6,0-1-0.4-1-1v-11.9c0-0.6,0.4-1,1-1s1,0.4,1,1v11h40v-41c0-0.6,0.4-1,1-1h10.5
	c0.6,0,1,0.4,1,1s-0.4,1-1,1h-9.5v41C181.2,239.6,180.9,240,180.3,240L180.3,240z M237.5,240h-22c-0.6,0-1-0.4-1-1v-41H205
	c-0.6,0-1-0.4-1-1s0.4-1,1-1h10.5c0.6,0,1,0.4,1,1v41h21c0.6,0,1,0.4,1,1S238,240,237.5,240z M105.9,231l2.7,18.2H95.7l2.7-18.2
	H105.9 M107.5,229.1H96.7l-3.2,22h17.2L107.5,229.1z"/>
<path class="st6" d="M157.7,231.2H46.1c-5.1,0-9.2-4.1-9.2-9.2v-10.5h129.9v10.8C166.8,227.2,162.7,231.2,157.7,231.2L157.7,231.2z"
	/>
<path class="st2" d="M167.4,210.9h-125v-47c0-3.6,3-6.7,6.7-6.7H163c2.5,0,4.6,2,4.6,4.6L167.4,210.9L167.4,210.9z"/>
<path class="st3" d="M158.8,154.2c3.9,0,7,3.1,7,7v61.9c0,3.9-3.1,7-7,7H45.4c-3.9,0-7-3.1-7-7v-61.9c0-3.9,3.1-7,7-7L158.8,154.2
	 M158.8,152.3H45.4c-5,0-9,4-9,9v61.9c0,5,4,9,9,9h113.4c5,0,9-4,9-9v-61.9C167.7,156.3,163.7,152.3,158.8,152.3z M116.2,251.8H88.1
	c-0.6,0-1-0.4-1-1s0.4-1,1-1h28.1c0.6,0,1,0.4,1,1C117.1,251.4,116.7,251.8,116.2,251.8L116.2,251.8z"/>
<path class="st3" d="M37.6,210.6h129.1v1.9H37.6V210.6z"/>
<path class="st3" d="M101.7,222.9c1.4,0.9,3.3,0.6,4.2-0.8c0.9-1.4,0.6-3.3-0.8-4.2l0,0c-1.4-0.9-3.3-0.6-4.2,0.8
	C99.9,220.1,100.3,222,101.7,222.9L101.7,222.9z"/>
<path class="st3" d="M102.1,223.7c-1.8,0-3.3-1.5-3.3-3.3s1.5-3.3,3.3-3.3s3.3,1.5,3.3,3.3S103.9,223.7,102.1,223.7z M102.1,218.1
	c-1.3,0-2.4,1-2.4,2.4s1,2.4,2.4,2.4c1.3,0,2.4-1,2.4-2.4S103.4,218.1,102.1,218.1z M348.1,252.4H244.9c-3.5,0-6.5-2.9-6.5-6.5V114
	c0-3.5,2.9-6.5,6.5-6.5h103.3c3.5,0,6.5,2.9,6.5,6.5v131.9C354.6,249.5,351.7,252.4,348.1,252.4L348.1,252.4z M244.9,109.5
	c-2.5,0-4.6,2-4.6,4.6V246c0,2.5,2,4.6,4.6,4.6h103.3c2.5,0,4.6-2,4.6-4.6V114c0-2.5-2-4.6-4.6-4.6L244.9,109.5z"/>
<path class="st3" d="M238.9,131.9h114.3v1.9H238.9V131.9z M238.9,155.7h114.3v1.9H238.9V155.7z M238.9,179.5h114.3v1.9H238.9V179.5z
	 M239.8,202.4h114.3v1.9H239.8V202.4z M238.9,227.1h114.3v1.9H238.9V227.1z"/>
<g>
	<path class="st3" d="M255,120.5c0,1.1,0.9,1.9,1.9,1.9c1.1,0,1.9-0.9,1.9-1.9l0,0c0-1.1-0.9-1.9-1.9-1.9S255,119.4,255,120.5
		L255,120.5z"/>
	<path class="st3" d="M264.6,120.5c0,1.1,0.9,1.9,1.9,1.9c1.1,0,1.9-0.9,1.9-1.9l0,0c0-1.1-0.9-1.9-1.9-1.9
		C265.4,118.6,264.6,119.4,264.6,120.5L264.6,120.5z"/>
	<path class="st3" d="M274.1,120.5c0,1.1,0.9,1.9,1.9,1.9c1.1,0,1.9-0.9,1.9-1.9l0,0c0-1.1-0.9-1.9-1.9-1.9
		C274.9,118.6,274.1,119.4,274.1,120.5L274.1,120.5z"/>
	<path class="st3" d="M255,145.2c0,1.1,0.9,1.9,1.9,1.9c1.1,0,1.9-0.9,1.9-1.9l0,0c0-1.1-0.9-1.9-1.9-1.9S255,144.2,255,145.2
		L255,145.2z"/>
	<path class="st3" d="M264.6,145.2c0,1.1,0.9,1.9,1.9,1.9s1.9-0.9,1.9-1.9l0,0c0-1.1-0.9-1.9-1.9-1.9
		C265.4,143.3,264.6,144.2,264.6,145.2L264.6,145.2z"/>
	<path class="st3" d="M274.1,145.2c0,1.1,0.9,1.9,1.9,1.9s1.9-0.9,1.9-1.9l0,0c0-1.1-0.9-1.9-1.9-1.9
		C274.9,143.3,274.1,144.2,274.1,145.2L274.1,145.2z"/>
	<path class="st3" d="M255,169c0,1.1,0.9,1.9,1.9,1.9c1.1,0,1.9-0.9,1.9-1.9l0,0c0-1.1-0.9-1.9-1.9-1.9S255,168,255,169L255,169z"/>
	<path class="st3" d="M264.6,169c0,1.1,0.9,1.9,1.9,1.9c1.1,0,1.9-0.9,1.9-1.9l0,0c0-1.1-0.9-1.9-1.9-1.9
		C265.4,167.1,264.6,168,264.6,169L264.6,169z"/>
	<path class="st3" d="M274.1,169c0,1.1,0.9,1.9,1.9,1.9c1.1,0,1.9-0.9,1.9-1.9l0,0c0-1.1-0.9-1.9-1.9-1.9
		C274.9,167.1,274.1,168,274.1,169L274.1,169z"/>
	<path class="st3" d="M255,191.9c0,1.1,0.9,1.9,1.9,1.9c1.1,0,1.9-0.9,1.9-1.9l0,0c0-1.1-0.9-1.9-1.9-1.9S255,190.8,255,191.9
		L255,191.9z"/>
	<path class="st3" d="M264.6,191.9c0,1.1,0.9,1.9,1.9,1.9c1.1,0,1.9-0.9,1.9-1.9l0,0c0-1.1-0.9-1.9-1.9-1.9S264.6,190.8,264.6,191.9
		L264.6,191.9z"/>
	<path class="st3" d="M274.1,191.9c0,1.1,0.9,1.9,1.9,1.9c1.1,0,1.9-0.9,1.9-1.9l0,0c0-1.1-0.9-1.9-1.9-1.9S274.1,190.8,274.1,191.9
		L274.1,191.9z"/>
	<path class="st3" d="M255,215.7c0,1.1,0.9,1.9,1.9,1.9c1.1,0,1.9-0.9,1.9-1.9l0,0c0-1.1-0.9-1.9-1.9-1.9S255,214.6,255,215.7
		L255,215.7z"/>
	<path class="st3" d="M264.6,215.7c0,1.1,0.9,1.9,1.9,1.9c1.1,0,1.9-0.9,1.9-1.9l0,0c0-1.1-0.9-1.9-1.9-1.9
		C265.4,213.8,264.6,214.6,264.6,215.7L264.6,215.7z"/>
	<path class="st3" d="M274.1,215.7c0,1.1,0.9,1.9,1.9,1.9c1.1,0,1.9-0.9,1.9-1.9l0,0c0-1.1-0.9-1.9-1.9-1.9
		C274.9,213.8,274.1,214.6,274.1,215.7L274.1,215.7z"/>
	<path class="st3" d="M255,239.5c0,1.1,0.9,1.9,1.9,1.9c1.1,0,1.9-0.9,1.9-1.9l0,0c0-1.1-0.9-1.9-1.9-1.9S255,238.5,255,239.5
		L255,239.5z"/>
	<path class="st3" d="M264.6,239.5c0,1.1,0.9,1.9,1.9,1.9s1.9-0.9,1.9-1.9l0,0c0-1.1-0.9-1.9-1.9-1.9S264.6,238.5,264.6,239.5
		L264.6,239.5z"/>
	<path class="st3" d="M274.1,239.5c0,1.1,0.9,1.9,1.9,1.9s1.9-0.9,1.9-1.9l0,0c0-1.1-0.9-1.9-1.9-1.9S274.1,238.5,274.1,239.5
		L274.1,239.5z"/>
</g>
<path class="st3" d="M310.3,126.2c-0.6,0-1-0.4-1-1v-9.5c0-0.6,0.4-1,1-1s1,0.4,1,1v9.5C311.2,125.8,310.9,126.2,310.3,126.2z
	 M319.8,126.2c-0.6,0-1-0.4-1-1v-9.5c0-0.6,0.4-1,1-1s1,0.4,1,1v9.5C320.8,125.8,320.4,126.2,319.8,126.2z M329.3,126.2
	c-0.6,0-1-0.4-1-1v-9.5c0-0.6,0.4-1,1-1s1,0.4,1,1v9.5C330.3,125.8,329.9,126.2,329.3,126.2z M338.9,126.2c-0.6,0-1-0.4-1-1v-9.5
	c0-0.6,0.4-1,1-1s1,0.4,1,1v9.5C339.8,125.8,339.4,126.2,338.9,126.2z M310.3,150c-0.6,0-1-0.4-1-1v-9.5c0-0.6,0.4-1,1-1s1,0.4,1,1
	v9.5C311.2,149.6,310.9,150,310.3,150z M319.8,150c-0.6,0-1-0.4-1-1v-9.5c0-0.6,0.4-1,1-1s1,0.4,1,1v9.5
	C320.8,149.6,320.4,150,319.8,150z M329.3,150c-0.6,0-1-0.4-1-1v-9.5c0-0.6,0.4-1,1-1s1,0.4,1,1v9.5
	C330.3,149.6,329.9,150,329.3,150z M338.9,150c-0.6,0-1-0.4-1-1v-9.5c0-0.6,0.4-1,1-1s1,0.4,1,1v9.5
	C339.8,149.6,339.4,150,338.9,150z M310.3,174.7c-0.6,0-1-0.4-1-1v-9.5c0-0.6,0.4-1,1-1s1,0.4,1,1v9.5
	C311.2,174.4,310.9,174.7,310.3,174.7L310.3,174.7z M319.8,174.7c-0.6,0-1-0.4-1-1v-9.5c0-0.6,0.4-1,1-1s1,0.4,1,1v9.5
	C320.8,174.4,320.4,174.7,319.8,174.7L319.8,174.7z M329.3,174.7c-0.6,0-1-0.4-1-1v-9.5c0-0.6,0.4-1,1-1s1,0.4,1,1v9.5
	C330.3,174.4,329.9,174.7,329.3,174.7L329.3,174.7z M338.9,174.7c-0.6,0-1-0.4-1-1v-9.5c0-0.6,0.4-1,1-1s1,0.4,1,1v9.5
	C339.8,174.4,339.4,174.7,338.9,174.7L338.9,174.7z M310.3,197.6c-0.6,0-1-0.4-1-1v-9.5c0-0.6,0.4-1,1-1s1,0.4,1,1v9.5
	C311.2,197.2,310.9,197.6,310.3,197.6z M319.8,197.6c-0.6,0-1-0.4-1-1v-9.5c0-0.6,0.4-1,1-1s1,0.4,1,1v9.5
	C320.8,197.2,320.4,197.6,319.8,197.6z M329.3,197.6c-0.6,0-1-0.4-1-1v-9.5c0-0.6,0.4-1,1-1s1,0.4,1,1v9.5
	C330.3,197.2,329.9,197.6,329.3,197.6z M338.9,197.6c-0.6,0-1-0.4-1-1v-9.5c0-0.6,0.4-1,1-1s1,0.4,1,1v9.5
	C339.8,197.2,339.4,197.6,338.9,197.6z M310.3,221.4c-0.6,0-1-0.4-1-1v-9.5c0-0.6,0.4-1,1-1s1,0.4,1,1v9.5
	C311.2,221,310.9,221.4,310.3,221.4z M319.8,221.4c-0.6,0-1-0.4-1-1v-9.5c0-0.6,0.4-1,1-1s1,0.4,1,1v9.5
	C320.8,221,320.4,221.4,319.8,221.4z M329.3,221.4c-0.6,0-1-0.4-1-1v-9.5c0-0.6,0.4-1,1-1s1,0.4,1,1v9.5
	C330.3,221,329.9,221.4,329.3,221.4z M338.9,221.4c-0.6,0-1-0.4-1-1v-9.5c0-0.6,0.4-1,1-1s1,0.4,1,1v9.5
	C339.8,221,339.4,221.4,338.9,221.4z M310.3,245.2c-0.6,0-1-0.4-1-1v-9.5c0-0.6,0.4-1,1-1s1,0.4,1,1v9.5
	C311.2,244.8,310.9,245.2,310.3,245.2z M319.8,245.2c-0.6,0-1-0.4-1-1v-9.5c0-0.6,0.4-1,1-1s1,0.4,1,1v9.5
	C320.8,244.8,320.4,245.2,319.8,245.2z M329.3,245.2c-0.6,0-1-0.4-1-1v-9.5c0-0.6,0.4-1,1-1s1,0.4,1,1v9.5
	C330.3,244.8,329.9,245.2,329.3,245.2z M338.9,245.2c-0.6,0-1-0.4-1-1v-9.5c0-0.6,0.4-1,1-1s1,0.4,1,1v9.5
	C339.8,244.8,339.4,245.2,338.9,245.2z M353.6,149.9V148c6.6,0,11.8-5.3,11.8-11.8s-5.3-11.8-11.8-11.8v-1.9
	c7.6,0,13.7,6.2,13.7,13.7S361.2,149.9,353.6,149.9z"/>
<path class="st3" d="M353.6,165.1v-1.9c6.6,0,11.8-5.3,11.8-11.8s-5.3-11.8-11.8-11.8v-1.9c7.6,0,13.7,6.2,13.7,13.7
	C367.3,158.9,361.2,165.1,353.6,165.1z M353.6,204.2v-1.9c6.6,0,11.8-5.3,11.8-11.8s-5.3-11.8-11.8-11.8v-1.9
	c7.6,0,13.7,6.2,13.7,13.7C367.3,198,361.2,204.2,353.6,204.2z"/>
<path class="st3" d="M353.6,219.4v-1.9c6.6,0,11.8-5.3,11.8-11.8s-5.3-11.8-11.8-11.8V192c7.6,0,13.7,6.2,13.7,13.7
	C367.3,213.2,361.2,219.4,353.6,219.4z"/>
<path class="st3" d="M353.6,238.5v-1.9c6.6,0,11.8-5.3,11.8-11.8s-5.3-11.8-11.8-11.8v-2c7.6,0,13.7,6.2,13.7,13.7
	C367.3,232.3,361.2,238.5,353.6,238.5z M235,231.9h3.8v14.3H235V231.9z"/>
<path class="st3" d="M190.3,193.8h2.9v6.7h-2.9V193.8z M202.7,193.8h2.9v6.7h-2.9V193.8z"/>
<path class="st3" d="M192.2,189.5c-0.2,0-0.3-0.1-0.4-0.2l-2.9-4.8c-0.1-0.2-0.1-0.5,0.2-0.7c0.2-0.1,0.5-0.1,0.7,0.2l2.9,4.8
	c0.1,0.2,0.1,0.5-0.2,0.7H192.2z M197.4,188c-0.3,0-0.5-0.2-0.5-0.5V182c0-0.3,0.2-0.5,0.5-0.5s0.5,0.2,0.5,0.5v5.5
	C197.9,187.8,197.7,188,197.4,188z M202.6,189.4c-0.1,0-0.2,0-0.3-0.1c-0.2-0.2-0.3-0.5-0.1-0.7l3-4.7c0.2-0.2,0.5-0.3,0.7-0.1
	s0.3,0.5,0.1,0.7l-3,4.7C202.9,189.3,202.7,189.4,202.6,189.4z"/>
<path class="st3" d="M69.7,190.5l5.7-0.9c0.6,1.9,1.9,2.9,4.2,3c2.4-0.2,3.7-1.2,4-3.3c-0.1-2.2-1.5-3.3-4.2-3.4
	c-1.7,0.1-3,0.5-4,1.1h-4.7l1-11.2h16.1v3.6H76.5l-0.6,4.6c1.5-0.8,3.2-1.1,5-1.1c5.3,0.1,8.2,2.2,8.4,6.3c-0.2,4.3-3.4,6.5-9.7,6.7
	C74.4,195.6,71.1,193.9,69.7,190.5L69.7,190.5z M111.2,185.5c0.2,6.9-3.1,10.3-9.9,10.1c-6.6-0.1-9.8-3.4-9.9-10
	c0.2-6.7,3.5-10.2,9.9-10.4C107.8,175.2,111.1,178.7,111.2,185.5z M105.1,185.6c0.1-4.9-1.1-7.2-3.7-7c-2.7-0.1-4,2.3-4,7
	c0,4.6,1.3,7,4,7C104,192.5,105.2,190.2,105.1,185.6z M133.1,185.5c0.2,6.9-3.1,10.3-9.9,10.1c-6.6-0.1-9.8-3.4-9.9-10
	c0.2-6.7,3.5-10.2,9.9-10.4C129.7,175.2,133,178.7,133.1,185.5z M127,185.6c0.1-4.9-1.1-7.2-3.7-7c-2.7-0.1-4,2.3-4,7
	c0,4.6,1.3,7,4,7C125.9,192.5,127.1,190.2,127,185.6z"/>
</svg>
